<svg width="18" height="18" viewBox="0 0 18 18" fill="none" xmlns="http://www.w3.org/2000/svg">
<path fill-rule="evenodd" clip-rule="evenodd" d="M7.34408 2.79902C4.60277 3.52914 2.58333 6.02865 2.58333 9C2.58333 12.5439 5.45606 15.4167 9 15.4167C11.9715 15.4167 14.4711 13.397 15.2011 10.6555C14.2387 11.4436 13.0082 11.9165 11.6668 11.9165C8.58335 11.9165 6.08317 9.4173 6.08317 6.33323C6.08317 4.99166 6.55611 3.76132 7.34408 2.79902ZM17.25 9.00065C17.2497 13.5568 13.5562 17.25 9 17.25C4.44354 17.25 0.75 13.5565 0.75 9C0.75 4.44354 4.44354 0.75 9 0.75C9.57152 0.75 10.1302 0.808035 10.6706 0.919097C11.088 1.00487 11.3913 1.36696 11.4025 1.79294C11.4136 2.21891 11.1298 2.59642 10.7175 2.70398C9.1053 3.12457 7.9165 4.59122 7.9165 6.33323C7.9165 8.4045 9.59559 10.0831 11.6668 10.0831C13.4086 10.0831 14.8754 8.89454 15.2956 7.28266C15.4031 6.87032 15.7806 6.58643 16.2066 6.59755C16.6325 6.60866 16.9947 6.91186 17.0805 7.32925C17.1936 7.87918 17.2504 8.4392 17.25 9.00065Z" fill="#0B172A"/>
</svg>
