<svg width="18" height="18" viewBox="0 0 18 18" fill="none" xmlns="http://www.w3.org/2000/svg">
<path fill-rule="evenodd" clip-rule="evenodd" d="M9 11.75C9.72935 11.75 10.4288 11.4603 10.9445 10.9445C11.4603 10.4288 11.75 9.72935 11.75 9C11.75 8.27065 11.4603 7.57118 10.9445 7.05546C10.4288 6.53973 9.72935 6.25 9 6.25C8.27065 6.25 7.57118 6.53973 7.05546 7.05546C6.53973 7.57118 6.25 8.27065 6.25 9C6.25 9.72935 6.53973 10.4288 7.05546 10.9445C7.57118 11.4603 8.27065 11.75 9 11.75ZM9 13.125C10.094 13.125 11.1432 12.6904 11.9168 11.9168C12.6904 11.1432 13.125 10.094 13.125 9C13.125 7.90598 12.6904 6.85677 11.9168 6.08318C11.1432 5.3096 10.094 4.875 9 4.875C7.90598 4.875 6.85677 5.3096 6.08318 6.08318C5.3096 6.85677 4.875 7.90598 4.875 9C4.875 10.094 5.3096 11.1432 6.08318 11.9168C6.85677 12.6904 7.90598 13.125 9 13.125Z" fill="#0B172A"/>
<path fill-rule="evenodd" clip-rule="evenodd" d="M8.3125 0.75H9.6875V3.54262C9.23094 3.48567 8.76906 3.48567 8.3125 3.54262V0.75ZM5.62712 4.655L3.65263 2.6805L2.6805 3.65263L4.655 5.62712C4.93737 5.26393 5.26393 4.93737 5.62712 4.655ZM3.54262 8.3125H0.75V9.6875H3.54262C3.48567 9.23094 3.48567 8.76906 3.54262 8.3125ZM4.655 12.3729L2.6805 14.3474L3.65263 15.3195L5.62712 13.345C5.26393 13.0626 4.93737 12.7361 4.655 12.3729ZM8.3125 14.4574V17.25H9.6875V14.4574C9.23094 14.5144 8.76906 14.5144 8.3125 14.4574ZM12.3729 13.345L14.3474 15.3195L15.3195 14.3474L13.345 12.3729C13.0626 12.7361 12.7361 13.0626 12.3729 13.345ZM14.4574 9.6875H17.25V8.3125H14.4574C14.5144 8.76906 14.5144 9.23094 14.4574 9.6875ZM13.345 5.62712L15.3195 3.65263L14.3474 2.6805L12.3729 4.655C12.7359 4.93687 13.0624 5.26412 13.345 5.62712Z" fill="#0B172A"/>
</svg>
