<svg width="26" height="24" viewBox="0 0 26 24" fill="none" xmlns="http://www.w3.org/2000/svg">
<path fill-rule="evenodd" clip-rule="evenodd" d="M23.2507 0.755069C23.7363 0.976727 23.9483 1.54574 23.7242 2.026L20.187 9.60579H24.7816C25.3165 9.60579 25.75 10.0346 25.75 10.5635C25.75 11.0925 25.3165 11.5213 24.7816 11.5213H19.2931L14.0406 22.777C13.8833 23.1142 13.543 23.331 13.1675 23.3333C12.792 23.3357 12.449 23.1231 12.2874 22.7879L6.85447 11.5213H1.21835C0.683547 11.5213 0.25 11.0925 0.25 10.5635C0.25 10.0346 0.683547 9.60579 1.21835 9.60579H5.93081L2.28102 2.03693C2.0508 1.55951 2.25549 0.987894 2.73821 0.760198C3.22093 0.532502 3.79888 0.734949 4.0291 1.21238L8.0765 9.60579H18.054L21.9657 1.22331C22.1898 0.743048 22.7652 0.533411 23.2507 0.755069ZM17.1601 11.5213H9.00016L13.147 20.121L17.1601 11.5213Z" fill="white"/>
</svg>
