<svg width="24" height="25" viewBox="0 0 24 25" fill="none" xmlns="http://www.w3.org/2000/svg">
<path fill-rule="evenodd" clip-rule="evenodd" d="M12 2.71148L2.21149 12.5L12 22.2885L21.7885 12.5L12 2.71148ZM10.8454 0.977814C11.1518 0.67185 11.567 0.499992 12 0.499992C12.433 0.499992 12.8482 0.67185 13.1546 0.977814L23.5217 11.345C23.8277 11.6513 24 12.067 24 12.5C24 12.933 23.8281 13.3482 23.5222 13.6546L13.155 24.0217C12.8487 24.3277 12.433 24.5 12 24.5C11.567 24.5 11.1518 24.3281 10.8454 24.0222L0.478271 13.655C0.172306 13.3487 0 12.933 0 12.5C0 12.067 0.171857 11.6518 0.477821 11.3454L10.8454 0.977814Z" fill="#A0A0A0"/>
<path fill-rule="evenodd" clip-rule="evenodd" d="M13.0211 7.39431V13.5212H10.9788V7.39431H13.0211Z" fill="#A0A0A0"/>
<path fill-rule="evenodd" clip-rule="evenodd" d="M13.4528 16.5149L12.0688 18.0374L10.5576 16.6636L11.9416 15.1412L13.4528 16.5149Z" fill="#A0A0A0"/>
</svg>
