<svg width="59" height="32" viewBox="0 0 59 32" fill="none" xmlns="http://www.w3.org/2000/svg">
<path d="M21.0945 17.8908C22.5891 18.8983 23.6364 20.2633 23.6364 22.0833V25.3333H28V22.0833C28 19.7217 24.1055 18.3242 21.0945 17.8908ZM19.2727 16.6667C21.6836 16.6667 23.6364 14.7275 23.6364 12.3333C23.6364 9.93917 21.6836 8 19.2727 8C18.76 8 18.28 8.10833 17.8218 8.26C18.7606 9.4129 19.2727 10.8507 19.2727 12.3333C19.2727 13.816 18.7606 15.2538 17.8218 16.4067C18.28 16.5583 18.76 16.6667 19.2727 16.6667ZM12.7273 16.6667C15.1382 16.6667 17.0909 14.7275 17.0909 12.3333C17.0909 9.93917 15.1382 8 12.7273 8C10.3164 8 8.36364 9.93917 8.36364 12.3333C8.36364 14.7275 10.3164 16.6667 12.7273 16.6667ZM12.7273 10.1667C13.9273 10.1667 14.9091 11.1417 14.9091 12.3333C14.9091 13.525 13.9273 14.5 12.7273 14.5C11.5273 14.5 10.5455 13.525 10.5455 12.3333C10.5455 11.1417 11.5273 10.1667 12.7273 10.1667ZM12.7273 17.75C9.81455 17.75 4 19.2017 4 22.0833V25.3333H21.4545V22.0833C21.4545 19.2017 15.64 17.75 12.7273 17.75ZM19.2727 23.1667H6.18182V22.0942C6.4 21.3142 9.78182 19.9167 12.7273 19.9167C15.6727 19.9167 19.0545 21.3142 19.2727 22.0833V23.1667Z" fill="#C4C4C4"/>
<path d="M43.588 21L42.608 18.746H38.618L37.596 21H36.056L40.704 11.116L45.128 21H43.588ZM39.206 17.402H42.034L40.648 14.238L39.206 17.402ZM46.4617 18.732V17.304H49.8217V18.732H46.4617ZM57.8555 11.662L53.2635 19.656H57.7435V21H50.9395L55.5315 13.006H51.6955V11.662H57.8555Z" fill="#C4C4C4"/>
</svg>
