<svg width="35" height="32" viewBox="0 0 35 32" fill="none" xmlns="http://www.w3.org/2000/svg">
<circle cx="16" cy="16" r="15.5" stroke="#C4C4C4" stroke-dasharray="3 3"/>
<path d="M16 16C18.0719 16 19.75 14.3219 19.75 12.25C19.75 10.1781 18.0719 8.5 16 8.5C13.9281 8.5 12.25 10.1781 12.25 12.25C12.25 14.3219 13.9281 16 16 16ZM16 10.375C17.0312 10.375 17.875 11.2188 17.875 12.25C17.875 13.2812 17.0312 14.125 16 14.125C14.9688 14.125 14.125 13.2812 14.125 12.25C14.125 11.2188 14.9688 10.375 16 10.375ZM16 16.9375C13.4969 16.9375 8.5 18.1937 8.5 20.6875V23.5H23.5V20.6875C23.5 18.1937 18.5031 16.9375 16 16.9375ZM21.625 21.625H10.375V20.6969C10.5625 20.0219 13.4688 18.8125 16 18.8125C18.5312 18.8125 21.4375 20.0219 21.625 20.6875V21.625Z" fill="#C4C4C4"/>
<path d="M23 25C23 21.6863 25.6863 19 29 19C32.3137 19 35 21.6863 35 25C35 28.3137 32.3137 31 29 31C25.6863 31 23 28.3137 23 25Z" fill="#A0A0A0"/>
<g clip-path="url(#clip0)">
<path d="M32.8579 25.3851L29.3858 25.3835L29.3874 28.8556L28.6128 28.8558L28.6166 25.3837L25.1445 25.3875L25.1448 24.6129L28.6169 24.6145L28.618 21.1451L29.3871 21.1449L29.386 24.6143L32.8554 24.6132L32.8579 25.3851Z" fill="white"/>
</g>
<defs>
<clipPath id="clip0">
<rect width="8" height="8" fill="white" transform="translate(25 21)"/>
</clipPath>
</defs>
</svg>
